<svg xmlns="http://www.w3.org/2000/svg" xmlns:xlink="http://www.w3.org/1999/xlink" version="1.1" x="0px" y="0px" width="100px" height="100px" viewBox="0 0 100 100" enable-background="new 0 0 100 100" xml:space="preserve">
<g id="Captions">
	<rect x="-330" y="-414" width="185" height="99"/>
	<rect x="-138" y="-450" width="100" height="30"/>
	<text transform="matrix(1 0 0 1 -72 -433.5)" fill="#000000" font-family="'Helvetica'" font-size="2.4">http://thenounproject.com</text>
	<text transform="matrix(1 0 0 1 -130.834 -438.5)"><tspan x="0" y="0" fill="#000000" font-family="'Helvetica-Bold'" font-size="6.1578">The Noun Project</tspan><tspan x="1.12" y="4.8" fill="#000000" font-family="'Helvetica-Bold'" font-size="4">Icon Template</tspan></text>
	<text transform="matrix(1 0 0 1 -316.5 -403.5)" fill="#000000" font-family="'Helvetica-Bold'" font-size="6.1578">Reminders</text>
	<line fill="#000000" stroke="#FFFFFF" stroke-miterlimit="10" x1="-130" y1="-428.5" x2="-120" y2="-428.5"/>
	<line fill="#000000" stroke="#FFFFFF" stroke-miterlimit="10" x1="-317" y1="-397.5" x2="-300" y2="-397.5"/>
	<g>
		<g>
			<g>
				<rect x="-308.802" y="-382.682" fill="#000000" width="8.721" height="8.642"/>
				<path fill="#000000" d="M-302.455-371.688h4.747v-4.703h-4.747V-371.688z M-297.266-371.251h-5.63v-5.579h5.63V-371.251      L-297.266-371.251z M-304.221-369.938h8.279v-8.203h-8.279V-369.938L-304.221-369.938z M-295.5-369.5h-9.163v-9.079h9.163      V-369.5L-295.5-369.5z"/>
				<polygon fill="#000000" points="-304.149,-369.867 -304.292,-370.009 -296.013,-378.213 -295.871,-378.071     "/>
			</g>
		</g>
	</g>
	<rect x="-317" y="-356" fill="none" width="35" height="32.5"/>
	<text transform="matrix(1 0 0 1 -317 -353.8428)"><tspan x="0" y="0" fill="#000000" font-family="'Helvetica-Bold'" font-size="3">Strokes</tspan><tspan x="0" y="5" fill="#000000" font-family="'Helvetica'" font-size="2.4">Try to keep strokes at 4px</tspan><tspan x="0" y="10" fill="#000000" font-family="'Helvetica'" font-size="2.4">Minimum stroke weight is 2px</tspan><tspan x="0" y="14.5" fill="#000000" font-family="'Helvetica'" font-size="2.4">For thicker strokes use even </tspan><tspan x="0" y="17.5" fill="#000000" font-family="'Helvetica'" font-size="2.4">numbers: 6px, 8px etc.</tspan><tspan x="0" y="22" fill="#000000" font-family="'Helvetica-Bold'" font-size="2.4">Remember to expand strokes </tspan><tspan x="0" y="25" fill="#000000" font-family="'Helvetica-Bold'" font-size="2.4">before saving as an SVG </tspan></text>
	<rect x="-274.5" y="-356" fill="none" width="35" height="32.5"/>
	<text transform="matrix(1 0 0 1 -274.5 -353.8428)"><tspan x="0" y="0" fill="#000000" font-family="'Helvetica-Bold'" font-size="3">Size</tspan><tspan x="0" y="5" fill="#000000" font-family="'Helvetica'" font-size="2.4">Cannot be wider or taller than </tspan><tspan x="0" y="8.5" fill="#000000" font-family="'Helvetica'" font-size="2.4">100px (artboard size)</tspan><tspan x="0" y="13.5" fill="#000000" font-family="'Helvetica'" font-size="2.4">Scale your icon to fill as much of </tspan><tspan x="0" y="16.5" fill="#000000" font-family="'Helvetica'" font-size="2.4">the artboard as possible</tspan></text>
	<rect x="-232" y="-356" fill="none" width="35" height="32.5"/>
	<text transform="matrix(1 0 0 1 -232 -353.8428)"><tspan x="0" y="0" fill="#000000" font-family="'Helvetica-Bold'" font-size="3">Ungroup</tspan><tspan x="0" y="5" fill="#000000" font-family="'Helvetica'" font-size="2.4">If your design has more than one </tspan><tspan x="0" y="8" fill="#000000" font-family="'Helvetica'" font-size="2.4">shape, make sure to ungroup</tspan></text>
	<rect x="-188" y="-356" fill="none" width="35" height="32.5"/>
	<text transform="matrix(1 0 0 1 -188 -353.8428)"><tspan x="0" y="0" fill="#000000" font-family="'Helvetica-Bold'" font-size="3">Save as</tspan><tspan x="0" y="5" fill="#000000" font-family="'Helvetica'" font-size="2.4">Save as .SVG and make sure </tspan><tspan x="0" y="8" fill="#000000" font-family="'Helvetica'" font-size="2.4">&#8220;Use Artboards&#8221; is checked</tspan></text>
	<text transform="matrix(1.0074 0 0 1 -263.542 -383.4067)" fill="#000000" font-family="'Helvetica'" font-size="2.5731">100px</text>
	<text transform="matrix(1.0074 0 0 1 -179 -375)" fill="#000000" font-family="'Helvetica-Bold'" font-size="5.1462">.SVG</text>
	<rect x="-264.514" y="-379.185" fill="#000000" width="10.261" height="10.185"/>
	<rect x="-264.477" y="-382.234" fill="#000000" width="0.522" height="2.337"/>
	<rect x="-254.812" y="-382.234" fill="#000000" width="0.523" height="2.337"/>
	<rect x="-265" y="-381.663" fill="#000000" width="11.233" height="0.572"/>
	<g>
		<rect x="-221.805" y="-380.156" fill="#000000" width="10.305" height="10.156"/>
		<rect x="-214.809" y="-385.293" fill="#000000" width="3.308" height="3.261"/>
	</g>
	<rect x="-316.5" y="-391.5" fill="#000000" stroke="#FFFFFF" stroke-miterlimit="10" width="30" height="30"/>
	<rect x="-274.5" y="-391.5" fill="#000000" stroke="#FFFFFF" stroke-miterlimit="10" width="30" height="30"/>
	<rect x="-231.5" y="-391.5" fill="#000000" stroke="#FFFFFF" stroke-miterlimit="10" width="30" height="30"/>
	<rect x="-187.5" y="-391.5" fill="#000000" stroke="#FFFFFF" stroke-miterlimit="10" width="30" height="30"/>
</g>
<g id="Your_Icon">
	<g>
		<path d="M-103.384-362.472c4.111,2.507,8.986,3.344,15.384,3.344s11.545-1.256,15.384-3.342c1.705-0.927,4.28-4.448,6.797-9.002    c10.399-0.473,16.714-6.496,16.857-12.412c0.09-3.687-2.324-8.009-9.133-9.247c0.069-0.708,0.111-1.393,0.111-2.044    c0-3.087,0-11.289-30.017-11.289s-30.017,8.202-30.017,11.29C-118.017-384.524-107.682-365.093-103.384-362.472z M-61.149-393.455    l-0.179,4.458l0,0L-61.149-393.455z M-58.882-388h0.002c3.46,0,5.512,1.996,5.455,4.369c-0.069,2.813-3.322,6.87-9.988,7.956    C-61.516-379.735-59.85-384-58.882-388z M-111.318-395.173c0-2.536,10.439-4.592,23.318-4.592s23.318,2.056,23.318,4.592    s-10.439,4.592-23.318,4.592S-111.318-392.637-111.318-395.173z"/>
		<path d="M-39.191-350.783c-0.486-0.2-1.008-0.19-1.463-0.016l-0.73,0.297l-2.503,1.005c-1.577,0.633-3.438,0.615-5.159-0.098    c-1.707-0.709-2.906-2.082-3.569-3.648c-0.639-1.576-0.77-3.41-0.061-5.119c0.713-1.721,2.017-3.048,3.575-3.717l2.483-1.059    l0.727-0.307c0.442-0.199,0.822-0.557,1.022-1.045c0.405-0.977-0.044-2.093-1.005-2.489l-0.148-0.063    c-2.917-1.014-6.173-0.936-9.26,0.379c-4.48,1.917-7.439,6.021-8.106,10.569l-7.079,2.926L-88-345.905l-17.532-7.264l-7.079-2.926    c-0.667-4.548-3.626-8.652-8.106-10.569c-3.087-1.314-6.343-1.393-9.26-0.379l-0.148,0.063c-0.961,0.396-1.41,1.513-1.005,2.489    c0.2,0.488,0.58,0.846,1.022,1.045l0.727,0.307l2.483,1.059c1.559,0.669,2.862,1.996,3.575,3.717    c0.709,1.709,0.578,3.543-0.061,5.119c-0.663,1.566-1.862,2.939-3.569,3.648c-1.721,0.713-3.582,0.73-5.159,0.098l-2.503-1.005    l-0.73-0.297c-0.455-0.175-0.977-0.185-1.463,0.016c-0.977,0.403-1.447,1.511-1.051,2.472l0.063,0.148    c1.345,2.78,3.702,5.023,6.815,6.279c4.522,1.812,9.52,1.012,13.215-1.735l7.066,2.919l5.067,2.101l-9.925,4.112    c-1.581,0.658-2.883,1.978-3.589,3.68c-1.413,3.414,0.2,7.315,3.615,8.728c1.702,0.707,3.558,0.718,5.141,0.065l22.39-9.278    l22.39,9.278c1.583,0.652,3.438,0.642,5.141-0.065c3.415-1.412,5.028-5.313,3.615-8.728c-0.706-1.702-2.008-3.021-3.589-3.68    l-9.925-4.112l5.067-2.101l7.066-2.919c3.695,2.747,8.692,3.548,13.215,1.735c3.113-1.256,5.471-3.499,6.815-6.279l0.063-0.148    C-37.744-349.272-38.215-350.38-39.191-350.783z M-110.146-327.596c-0.504,1.217-1.901,1.794-3.118,1.291    c-1.216-0.504-1.794-1.901-1.29-3.118c0.506-1.217,1.901-1.795,3.117-1.291C-110.22-330.21-109.642-328.812-110.146-327.596z     M-64.563-330.714c1.216-0.504,2.611,0.074,3.117,1.291c0.504,1.217-0.074,2.614-1.29,3.118c-1.217,0.503-2.614-0.074-3.118-1.291    S-65.78-330.21-64.563-330.714z"/>
	</g>
	<path d="M64.479-366.566c-1.031,1.034-1.879,0.685-1.879-0.776v-20.032c0-1.46-0.841-1.81-1.872-0.779l-21.593,21.587   c-1.031,1.034-2.003,0.69-2.157-0.761l-4.746-44.03C32.074-412.812,30.75-414,29.292-414h-9.403c-1.464,0-2.72,1.194-2.797,2.655   l-5.031,94.691c-0.08,1.46,1.055,2.654,2.513,2.654h70.716c1.458,0,2.654-1.197,2.654-2.657v-70.716c0-1.46-0.844-1.81-1.875-0.779   L64.479-366.566z M62.6-329.329c0,1.46-1.19,2.654-2.651,2.654H39.917c-1.464,0-2.654-1.194-2.654-2.654v-20.032   c0-1.46,1.19-2.654,2.654-2.654h20.031c1.461,0,2.651,1.194,2.651,2.654V-329.329z"/>
	<path d="M237.471-370.312l-14.556-8.454l14.556-8.456c0.327-0.189,0.529-0.54,0.529-0.918s-0.202-0.726-0.529-0.915L204.67-407.99   c-0.327-0.189-0.733-0.192-1.061,0.002L188-398.923l-15.606-9.065c-0.33-0.194-0.733-0.192-1.063-0.002l-32.801,18.935   c-0.327,0.189-0.529,0.537-0.529,0.915s0.202,0.729,0.529,0.918l14.556,8.456l-14.556,8.454c-0.327,0.189-0.529,0.54-0.529,0.918   c0,0.378,0.202,0.729,0.529,0.917l15.606,9.007v19.609c0,0.379,0.202,0.729,0.529,0.918l32.801,18.935   c0.022,0.013,0.051,0.018,0.076,0.03c0.031,0.016,0.06,0.026,0.087,0.036c0.12,0.044,0.24,0.074,0.366,0.074   c0.125,0,0.245-0.03,0.362-0.074c0.031-0.01,0.06-0.021,0.087-0.036c0.028-0.01,0.057-0.018,0.08-0.03l32.801-18.935   c0.327-0.189,0.528-0.539,0.528-0.918v-19.603l15.617-9.014c0.327-0.189,0.526-0.54,0.529-0.917   C238-369.772,237.798-370.123,237.471-370.312z M204.144-405.848l30.679,17.713l-14.024,8.147l-30.682-17.713L204.144-405.848z    M141.178-388.135l30.682-17.713l14.021,8.145l-30.685,17.713L141.178-388.135z M141.175-369.399l14.021-8.142l30.685,17.71   l-14.021,8.146L141.175-369.399z M186.937-322.764l-30.682-17.71v-17.772l15.075,8.702c0.166,0.095,0.348,0.144,0.529,0.144   c0.187,0,0.368-0.049,0.534-0.146l14.551-8.452L186.937-322.764z M189.056-361.952c0,0.585-0.476,1.058-1.061,1.058   c-0.586,0-1.062-0.473-1.062-1.058v-33.627c0-0.588,0.476-1.061,1.062-1.061c0.585,0,1.061,0.473,1.061,1.061V-361.952z    M219.734-340.474l-30.679,17.71l0.011-35.227l14.543,8.444c0.327,0.191,0.733,0.191,1.061,0.002l15.064-8.696V-340.474z    M204.144-351.686l-14.024-8.146l30.679-17.715l14.024,8.147L204.144-351.686z"/>
	<g>
		<path d="M325.998-369.083c2.422-5.869,12.434-30.137,13.147-31.879c-0.06-7.199-5.936-13.038-13.147-13.038    s-13.087,5.838-13.146,13.038C313.566-399.221,323.577-374.952,325.998-369.083z"/>
		<path d="M358.812-393.21c-2.485-2.485-5.788-3.854-9.299-3.854c-3.474,0-6.744,1.338-9.216,3.772l-13.248,31.842l30.178-12.557    l1.66-0.692c2.435-2.474,3.774-5.743,3.774-9.216C362.663-387.425,361.295-390.727,358.812-393.21z"/>
		<path d="M311.702-393.288c-2.475-2.436-5.741-3.776-9.218-3.776c-3.512,0-6.812,1.368-9.295,3.85    c-5.099,5.103-5.123,13.386-0.077,18.516l8.968,3.731l22.868,9.517L311.702-393.288z"/>
		<path d="M292.745-373.547c-7.25,0-13.146,5.898-13.146,13.147c0,7.248,5.896,13.146,13.146,13.146    c0.046,0,0.093,0.006,0.135,0.017l31.646-13.163l-31.652-13.172C292.827-373.556,292.785-373.547,292.745-373.547z"/>
		<path d="M358.81-327.592c5.092-5.092,5.123-13.379,0.082-18.51l-31.84-13.249l13.243,31.836c2.477,2.435,5.746,3.775,9.22,3.775    C353.026-323.739,356.326-325.108,358.81-327.592z"/>
		<path d="M359.121-347.232c0.042-0.015,0.087-0.021,0.131-0.021c7.249,0,13.149-5.898,13.149-13.146    c0-7.249-5.9-13.147-13.149-13.147c-0.049,0-0.095-0.006-0.142-0.018l-31.64,13.165L359.121-347.232z"/>
		<path d="M325.998-314c7.217,0,13.116-5.872,13.147-13.088c0-0.062,0.011-0.12,0.028-0.176l-13.173-31.663l-13.176,31.673    c0.021,0.052,0.031,0.108,0.031,0.166C312.886-319.872,318.781-314,325.998-314z"/>
		<path d="M324.948-359.352l-31.825,13.238c-5.057,5.126-5.032,13.423,0.066,18.521c2.483,2.483,5.783,3.853,9.295,3.853    c3.477,0,6.748-1.342,9.225-3.779L324.948-359.352z"/>
	</g>
	<g>
		<g>
			<path d="M511.827-374.034L464-398.117l-47.827,24.083c-1.948,0.978-2.73,3.353-1.75,5.301c0.983,1.949,3.355,2.73,5.299,1.75     l2.008-1.01v34.823c0,1.814,1.478,3.287,3.291,3.287h11.513h54.932h11.515c1.813,0,3.289-1.473,3.289-3.287v-34.823l2.007,1.01     c0.566,0.287,1.174,0.422,1.772,0.422c1.443,0,2.833-0.795,3.529-2.172C514.558-370.681,513.775-373.056,511.827-374.034z      M492.124-355.65h-56.248v-8.114c0-0.355,0.302-0.657,0.657-0.657h54.932c0.357,0,0.659,0.302,0.659,0.657V-355.65z      M435.876-353.018h56.248v9.1h-56.248V-353.018z M436.533-332.514c-0.355,0-0.657-0.303-0.657-0.656v-8.117h56.248v8.117     c0,0.354-0.302,0.656-0.659,0.656H436.533z M503.636-333.17c0,0.354-0.301,0.656-0.656,0.656h-8.289     c0.044-0.213,0.063-0.432,0.063-0.656v-30.594c0-1.816-1.473-3.289-3.289-3.289h-54.932c-1.814,0-3.287,1.473-3.287,3.289v30.594     c0,0.225,0.02,0.443,0.063,0.656h-8.289c-0.355,0-0.656-0.303-0.656-0.656v-36.148L464-389.281l39.636,19.963V-333.17z"/>
			<path d="M454.956-379.168v5.264c0,1.812,1.471,3.284,3.287,3.284h11.514c1.814,0,3.287-1.473,3.287-3.284v-5.264     c0-1.814-1.473-3.292-3.287-3.292h-11.514C456.427-382.46,454.956-380.982,454.956-379.168z M458.243-379.828h4.443v1.973h-5.103     v-1.313C457.584-379.524,457.885-379.828,458.243-379.828z M457.584-373.904v-1.321h5.103v1.976h-4.443     C457.885-373.25,457.584-373.549,457.584-373.904z M469.757-373.25h-4.443v-1.976h5.101v1.321     C470.414-373.549,470.112-373.25,469.757-373.25z M470.414-379.168v1.313h-5.101v-1.973h4.443     C470.112-379.828,470.414-379.524,470.414-379.168z"/>
		</g>
	</g>
	<g>
		<path d="M-65.17-253.239c-9.56,0-17.948,4.937-22.804,12.39c-4.854-7.453-13.244-12.39-22.801-12.39    c-15.026,0-27.208,12.182-27.208,27.211c0,15.023,12.182,27.259,27.208,27.259c4.68,0,9.072-1.23,12.913-3.23    c-6.388,0-13.02,0-13.053,0c0,0,27.217-38.928,27.263-38.997c0.021-0.025,0.041-0.071,0.067-0.097    c0.682-0.943,1.549-1.755,2.545-2.379c1.011-0.641,2.154-1.096,3.381-1.306c0.503-0.088,1.021-0.139,1.55-0.139    c0.523,0,1.031,0.049,1.529,0.134c4.161,0.692,7.373,4.141,7.702,8.409l7.42,3.674L-67-229.043v4.908c0,0.021,0,0.046,0,0.066    c0,9.23-5.66,17.112-13.731,20.365c4.392,3.062,9.756,4.883,15.523,4.883c15.029,0,27.228-12.185,27.228-27.208    C-37.98-241.058-50.141-253.239-65.17-253.239z"/>
		<circle cx="-75.037" cy="-236.342" r="1.365"/>
	</g>
	<path d="M75.004-240H24.998c-13.806,0-24.997,11.15-24.997,24.959s11.191,25.055,24.997,25.055c6.23,0,11.919-2.014,16.296-6.014   h17.408c4.381,4,10.066,5.992,16.297,5.992c13.809,0,25-11.188,25-24.995C99.999-228.81,88.808-240,75.004-240z M41-210H30v11H20   v-11H10v-10h10v-11h10v11h11V-210z M69.81-199.487c-2.874,0-5.204-2.327-5.204-5.196c0-2.872,2.33-5.199,5.204-5.199   c2.865,0,5.194,2.327,5.194,5.199C75.004-201.814,72.675-199.487,69.81-199.487z M80.198-220.281c-2.869,0-5.194-2.327-5.194-5.199   s2.325-5.199,5.194-5.199c2.875,0,5.202,2.327,5.202,5.199S83.073-220.281,80.198-220.281z"/>
	<g>
		<rect x="48" y="-290" width="4" height="51"/>
	</g>
	<path fill-rule="evenodd" clip-rule="evenodd" d="M219.309-240.307c-2.505-0.461-9.614,1.483-13.699,2.492   c-5.373,1.324-9.98,2.824-12.158,6.254c-4.398,6.925-10.306,14.762-10.258,22.39c0.057,8.925,7.182,18.045,12.266,24.21   c1.467,1.777,3.672,1.903,5.305,1.757c8.548-0.769,19.62-3.71,23.49-6.039c2.975-1.79,14.036-16.731,13.74-23.664   C237.666-220.49,227.738-238.762,219.309-240.307z M193.54-222.871c0.901,0,1.631,1.118,1.631,2.498   c0,1.379-0.729,2.498-1.631,2.498s-1.631-1.119-1.631-2.498C191.909-221.753,192.639-222.871,193.54-222.871z M187.017-206.137   c-0.901,0-1.631-1.119-1.631-2.498c0-1.38,0.729-2.498,1.631-2.498s1.631,1.118,1.631,2.498   C188.647-207.256,187.918-206.137,187.017-206.137z M190.278-212.006c-0.901,0-1.631-1.119-1.631-2.498   c0-1.38,0.729-2.498,1.631-2.498s1.631,1.118,1.631,2.498C191.909-213.125,191.18-212.006,190.278-212.006z M192.934-193.604   c-0.901,0-1.631-1.118-1.631-2.498c0-1.379,0.729-2.498,1.631-2.498c0.9,0,1.631,1.119,1.631,2.498   C194.564-194.722,193.834-193.604,192.934-193.604z M196.195-199.473c-0.901,0-1.631-1.118-1.631-2.498   c0-1.379,0.729-2.498,1.631-2.498c0.9,0,1.631,1.119,1.631,2.498C197.826-200.591,197.096-199.473,196.195-199.473z    M199.457-205.342c-0.901,0-1.631-1.118-1.631-2.498c0-1.379,0.729-2.498,1.631-2.498c0.9,0,1.631,1.119,1.631,2.498   C201.088-206.46,200.357-205.342,199.457-205.342z M201.275-226.416c-0.857-1.26-0.705-2.857,0.342-3.572   c1.047-0.713,2.591-0.271,3.449,0.988c0.858,1.258,0.705,2.857-0.341,3.57C203.678-224.715,202.134-225.157,201.275-226.416z    M208.14-187.312c-1.419,0.856-3.003,0.831-3.538-0.056c-0.534-0.887,0.182-2.299,1.601-3.155s3.003-0.831,3.538,0.056   C210.274-189.58,209.559-188.168,208.14-187.312z M205.609-200.453c-2.784-0.537-0.503-6.136-1.244-8.718   c3.921-0.601,2.82,3.825,7.472,2.492C209.975-204.393,206.641-203.572,205.609-200.453z M213.143-210.68   c-1.047,0.715-2.592,0.272-3.449-0.986c-0.858-1.26-0.706-2.857,0.341-3.572c1.047-0.713,2.591-0.271,3.45,0.988   C214.342-212.992,214.189-211.393,213.143-210.68z M220.559-229.596c-1.047,0.715-2.592,0.271-3.449-0.986   c-0.858-1.26-0.706-2.858,0.341-3.572s2.591-0.271,3.45,0.987C221.758-231.908,221.605-230.309,220.559-229.596z M225.525-215.832   c-0.857-1.26-0.705-2.858,0.342-3.572s2.591-0.271,3.449,0.987s0.705,2.858-0.341,3.571   C227.928-214.131,226.384-214.574,225.525-215.832z M229.973-202.863c-1.419,0.856-3.002,0.832-3.537-0.055s0.182-2.3,1.6-3.156   c1.419-0.855,3.002-0.83,3.537,0.057S231.391-203.719,229.973-202.863z"/>
	<path fill-rule="evenodd" clip-rule="evenodd" d="M153.428-269.494c-9.633,9.768-16.347,27.355-15.325,44.571   c0.129,2.185,0.533,3.254,1.891,4.351c6.969,5.63,16.785,8.412,28.237,9.557c1.44,0.145,3.134-0.754,3.763-1.766   c7.463-12.023,13.133-25.842,13.652-44.809c0.039-1.455,0.157-1.702-0.642-2.3c-6.593-4.941-20.312-8.521-27.31-10.046   C155.829-270.34,154.126-270.201,153.428-269.494z M173.999-243.465c0,1.381-1.567,2.5-3.5,2.5s-3.5-1.119-3.5-2.5   s1.567-2.5,3.5-2.5S173.999-244.846,173.999-243.465z M164.499-255.965c1.933,0,3.5,1.119,3.5,2.5s-1.567,2.5-3.5,2.5   s-3.5-1.119-3.5-2.5S162.566-255.965,164.499-255.965z M157.499-265.965c1.933,0,3.5,1.119,3.5,2.5s-1.567,2.5-3.5,2.5   s-3.5-1.119-3.5-2.5S155.566-265.965,157.499-265.965z M148.482-221.635c-0.723,1.178-2.644,1.312-4.291,0.301   s-2.397-2.784-1.676-3.961c0.723-1.178,2.644-1.312,4.291-0.301S149.204-222.812,148.482-221.635z M151.482-235.635   c-0.723,1.178-2.644,1.312-4.291,0.301s-2.397-2.784-1.676-3.961c0.723-1.178,2.644-1.312,4.291-0.301   S152.204-236.812,151.482-235.635z M158.482-225.635c-0.723,1.178-2.644,1.312-4.291,0.301s-2.397-2.784-1.676-3.961   c0.723-1.178,2.644-1.312,4.291-0.301S159.204-226.812,158.482-225.635z M165.482-215.635c-0.723,1.178-2.644,1.312-4.291,0.301   s-2.397-2.784-1.676-3.961c0.723-1.178,2.644-1.312,4.291-0.301S166.204-216.812,165.482-215.635z M168.482-229.635   c-0.723,1.178-2.644,1.312-4.291,0.301s-2.397-2.784-1.676-3.961c0.723-1.178,2.644-1.312,4.291-0.301   S169.204-230.812,168.482-229.635z M169.486-235.701c0.519-2.802,6.828,0.186,6.228-3.738c3.241,1.735-0.907,6.448-1.246,8.721   C171.928-231.502,174.119-237.013,169.486-235.701z"/>
	<path d="M336.296-225.123l16.165-16.164l8.194,8.193l9.095-0.31l-12.587-12.586l-2.608-2.607l14.628-14.625   c1.796,0.249,3.683-0.293,5.062-1.675c2.339-2.341,2.339-6.132,0.003-8.472c-2.342-2.34-6.134-2.34-8.473,0   c-1.383,1.383-1.926,3.268-1.677,5.065l-14.625,14.624l-2.606-2.605l-12.586-12.588l-0.31,9.095l8.193,8.195l-16.162,16.165   l-16.169-16.168l8.193-8.193l-0.31-9.095l-12.586,12.586l-2.606,2.607L287.9-268.305c0.249-1.796-0.291-3.681-1.674-5.063   c-2.339-2.34-6.131-2.34-8.47-0.001c-2.343,2.341-2.343,6.132,0,8.473c1.38,1.382,3.267,1.924,5.062,1.673l14.625,14.625   l-2.605,2.605l-12.59,12.588l9.098,0.309l8.194-8.193l16.165,16.167l-37.188,37.188l-0.761,11.059l42.758-43.44l4.727-4.801   l0.762-0.773l4.723-4.801l16.039-16.292l1.098,1.099l-16.29,16.038l-4.809,4.729l-0.761,0.749l-4.806,4.734l-43.44,42.758   l11.054-0.764l37.192-37.189l37.186,37.188l11.06,0.764l-43.44-42.758l0.683-0.682l42.758,43.439l-0.767-11.059L336.296-225.123z    M320.433-229.851L304.14-245.89l1.098-1.098l16.039,16.296L320.433-229.851z"/>
	<path d="M493.605-268.82c-0.558,3.083-13.598,75.437-13.974,77.6c-0.851,4.887-4.48,8.916-9.242,10.273   c-6.889,1.959-14.085-2.052-16.044-8.935l-19.492-68.566c-1.552-5.459,1.627-11.16,7.084-12.712   c5.456-1.549,11.156,1.627,12.709,7.087l13.723,48.272c1.051,3.686-1.096,7.541-4.781,8.586c-3.691,1.051-7.54-1.099-8.592-4.787   l-11.156-39.26l-4.28,1.215l11.157,39.265c1.721,6.045,8.041,9.567,14.085,7.847c6.045-1.72,9.567-8.037,7.848-14.085   l-13.724-48.27c-2.221-7.816-10.387-12.368-18.202-10.146c-7.816,2.221-12.371,10.39-10.144,18.206l19.486,68.562   c2.627,9.245,12.289,14.63,21.538,12.002c6.395-1.821,11.27-7.234,12.414-13.791c0.375-2.149,13.829-76.817,13.967-77.575   L493.605-268.82z"/>
	<path d="M-38-105.832v-3.109c-12.973-0.484-25.061,1.035-36.193,4.598l22.91-12.229c0.506,0.523,1.219,0.853,2.004,0.853   c1.547,0,2.808-1.255,2.808-2.802c0-1.553-1.261-2.807-2.808-2.807c-1.553,0-2.808,1.254-2.808,2.807   c0,0.195,0.073,0.366,0.116,0.555l-26.942,14.372l-4.567-7.874l-16.521,9.573l4.227,7.302l-37.32,19.914   c-0.512-0.523-1.218-0.853-2.003-0.853c-1.554,0-2.808,1.255-2.808,2.808c0,1.547,1.254,2.802,2.808,2.802   c1.546,0,2.802-1.255,2.802-2.802c0-0.201-0.074-0.371-0.11-0.555l29.749-15.876C-120.233-75.206-131.789-55.673-138-38h3.309   c6.9-19.104,20.146-40.248,40.67-53.573l3.592,6.206l16.529-9.58l-2.99-5.151C-65.074-104.453-52.09-106.365-38-105.832z"/>
	<path d="M3.096-130.546c-1.429-0.626-2.317,0.106-1.976,1.628l18.426,82.107c0.342,1.521,1.666,2.034,2.943,1.14l21.628-15.143   c1.277-0.895,3.034-0.567,3.904,0.727l7.062,10.504c0.869,1.294,2.024,1.156,2.566-0.306l8.72-23.519   c0.542-1.462,0.185-1.666-0.796-0.453l-3.129,3.877c-0.98,1.213-3.057,2.231-4.615,2.264l-1.122,0.022   c-1.559,0.032-3.627-0.94-4.596-2.162l-35.244-44.436c-0.969-1.222-0.753-1.439,0.479-0.485l47.767,36.979   c1.232,0.954,3.443,1.308,4.912,0.785l27.802-9.896c1.469-0.522,1.503-1.462,0.074-2.088L3.096-130.546z"/>
	<g>
		<path d="M200.72-107.673c0-7.024-5.696-12.72-12.72-12.72c-7.024,0-12.72,5.695-12.72,12.72c0,7.023,5.695,12.713,12.72,12.713    C195.023-94.96,200.72-100.649,200.72-107.673z M183.105-107.673c0-2.703,2.191-4.895,4.895-4.895    c2.696,0,4.888,2.191,4.888,4.895c0,2.696-2.191,4.888-4.888,4.888C185.297-102.785,183.105-104.977,183.105-107.673z"/>
		<path d="M230.438-41.491l-34.813-8.303l34.813-8.31c0.954-0.229,1.542-1.182,1.314-2.129c-0.229-0.954-1.176-1.541-2.137-1.313    l-36.301,8.662c3.63-21.341,25.012-36.245,25.012-55.343C218.327-124.672,204.75-138,188-138    c-16.751,0-30.327,13.328-30.327,29.773c0,19.098,21.485,34.002,25.018,55.343l-36.313-8.662c-0.947-0.228-1.901,0.359-2.13,1.313    c-0.228,0.947,0.359,1.9,1.307,2.129l34.821,8.31l-34.821,8.303c-0.947,0.228-1.534,1.183-1.307,2.136    c0.193,0.809,0.92,1.355,1.722,1.355c0.132,0,0.27-0.014,0.408-0.049l37.198-8.869c0.774,1.666,2.461,2.834,4.425,2.834    s3.644-1.168,4.425-2.834l37.191,8.869c0.139,0.035,0.276,0.049,0.414,0.049c0.803,0,1.528-0.547,1.723-1.355    C231.98-40.309,231.393-41.264,230.438-41.491z M167.454-107.673c0-11.351,9.195-20.546,20.546-20.546    c11.345,0,20.546,9.195,20.546,20.546c0,11.345-9.201,20.549-20.546,20.549C176.649-87.124,167.454-96.328,167.454-107.673z"/>
	</g>
	<g>
		<g>
			<path d="M347.913-106.914c-0.517,0-0.938-0.424-0.938-0.938v-13.084c0-0.518-0.421-0.939-0.937-0.939h-40.076     c-0.518,0-0.938,0.422-0.938,0.939v13.084c0,0.514-0.42,0.938-0.938,0.938h-27.15c-0.517,0-0.938,0.424-0.938,0.938v14.545     c0,0.512,0.421,0.936,0.938,0.936h43.721c0.518,0,0.941-0.424,0.941-0.936v-3.104c0-0.514,0.424-0.936,0.941-0.936h6.92     c0.518,0,0.94,0.422,0.94,0.936v3.104c0,0.512,0.424,0.936,0.94,0.936h43.721c0.518,0,0.938-0.424,0.938-0.936v-14.545     c0-0.514-0.42-0.938-0.938-0.938H347.913z M311.611-106.914c-0.518,0-0.938-0.424-0.938-0.938v-7.438     c0-0.518,0.42-0.938,0.938-0.938h28.779c0.517,0,0.938,0.42,0.938,0.938v7.438c0,0.514-0.421,0.938-0.938,0.938H311.611z"/>
		</g>
		<g>
			<path d="M330.401-75.582c0,0.514-0.423,0.938-0.94,0.938h-6.92c-0.518,0-0.941-0.424-0.941-0.938v-10.455     c0-0.514-0.424-0.938-0.941-0.938h-43.721c-0.517,0-0.938,0.424-0.938,0.938v30.975c0,0.514,0.421,0.938,0.938,0.938h98.125     c0.518,0,0.938-0.424,0.938-0.938v-30.975c0-0.514-0.42-0.938-0.938-0.938h-43.721c-0.517,0-0.94,0.424-0.94,0.938V-75.582z"/>
		</g>
	</g>
	<g>
		<polygon points="500.263,-79.951 489.716,-65.316 483.627,-63.977 500.656,-87.615   "/>
		<polygon points="499.625,-67.488 496.662,-66.838 499.816,-71.219   "/>
		<polygon points="501.104,-96.352 476.685,-62.45 470.596,-61.118 501.492,-104.004   "/>
		<polygon points="501.939,-112.736 463.653,-59.592 457.568,-58.256 502.329,-120.396   "/>
		<path d="M424.4-39.57l83.682-17.643c1.404-0.301,2.428-1.502,2.504-2.936L514-126.945c0-0.049,0-0.105,0-0.158    c0-0.864-0.353-1.697-0.99-2.293l-6.588-6.232c-0.752-0.714-1.807-1.015-2.818-0.799l-83.68,17.646    c-1.405,0.297-2.432,1.502-2.506,2.936l-3.414,66.793c-0.045,0.93,0.312,1.826,0.986,2.455l6.59,6.228    C422.334-39.651,423.391-39.359,424.4-39.57z M432.621-114.998l-9.596,13.328l0.441-8.736l2.266-3.134L432.621-114.998z     M445.556-117.722l-23.371,32.437l0.446-8.732l16.031-22.25L445.556-117.722z M458.489-120.449l-37.138,51.561l0.447-8.736    l29.797-41.371L458.489-120.449z M471.42-123.178L420.694-52.76l-0.162-0.117l0.427-8.359l43.575-60.488L471.42-123.178z     M424.718-46.102l-4.243-4.007l4.08-0.901l52.909-73.442l6.894-1.458l-52.856,73.378l6.09-1.336l52.812-73.312l6.893-1.454    l-52.758,73.239l6.089-1.335l51.919-72.079l0.211,0.146l0.053-1.137l0.475-0.102l4.323,4.092L504.399-62.9L424.718-46.102z"/>
	</g>
	<g>
		<path d="M-40.777,11.806h-94.446c-1.533,0-2.776,1.244-2.776,2.777v70.835c0,1.533,1.243,2.776,2.776,2.776h94.446    c1.533,0,2.777-1.243,2.777-2.776V14.583C-38,13.05-39.244,11.806-40.777,11.806z M-43.553,17.358v6.729h-51.273    c-0.312,0-0.578-0.266-0.578-0.578V22.47c0-0.895-0.35-1.736-0.987-2.371c-0.636-0.631-1.46-1.02-2.372-0.977l-14.116,0.045    c-1.847,0.008-3.351,1.516-3.351,3.363v1.038c0,0.204-0.105,0.342-0.169,0.403c-0.063,0.064-0.2,0.17-0.403,0.17h-0.002    l-15.643-0.046v-6.737H-43.553z M-132.447,27.792v-0.92l15.635,0.047c0.004,0,0.006,0,0.01,0c0.891,0,1.73-0.348,2.363-0.98    c0.637-0.634,0.986-1.476,0.986-2.37V22.53c0-0.316,0.267-0.585,0.582-0.586l14.117-0.047l0,0c0.204,0,0.34,0.106,0.403,0.168    c0.063,0.062,0.169,0.2,0.169,0.404v1.039c0,1.851,1.506,3.355,3.355,3.355h51.273v0.928H-132.447z M-132.447,30.567h11.646    v52.074h-11.646V30.567z M-118.023,82.642V30.567h74.471v52.074H-118.023z"/>
		<circle cx="-129.363" cy="20.503" r="1.967"/>
		<circle cx="-124.387" cy="20.503" r="1.967"/>
		<circle cx="-119.412" cy="20.503" r="1.967"/>
	</g>
	<path d="M91.797,58.625c-0.197,0-0.393,0.017-0.588,0.03l-3.741-8.096c-0.001-0.002-0.001-0.003-0.003-0.005L77.74,29.514   c1.456-1.48,2.355-3.51,2.355-5.75c0-4.529-3.672-8.202-8.201-8.202c-2.955,0-5.537,1.567-6.981,3.911l-31.989-6.15   c-0.663-3.865-4.021-6.809-8.074-6.809c-4.531,0-8.203,3.674-8.203,8.203c0,2.736,1.346,5.154,3.406,6.645L7.412,68.074   C3.253,68.473,0,71.975,0,76.236c0,4.531,3.672,8.203,8.203,8.203c2.955,0,5.537-1.568,6.98-3.912l31.988,6.152   c0.664,3.863,4.021,6.807,8.075,6.807c4.53,0,8.202-3.672,8.202-8.202c0-0.296-0.017-0.587-0.047-0.874l22.858-11.543   c1.46,1.34,3.399,2.164,5.536,2.164c4.531,0,8.203-3.674,8.203-8.203S96.328,58.625,91.797,58.625z M31.83,19.008l31.988,6.151   c0.37,2.155,1.577,4.018,3.278,5.249l-3.921,14.488l-23.124-4.188l-9.356-20.243C31.127,20.026,31.505,19.535,31.83,19.008z    M85.951,61.079c-0.432,0.439-0.81,0.931-1.135,1.458l-12.83-2.467l11.375-4.594L85.951,61.079z M68.895,45.932l3.713-13.723   l7.262,15.711L68.895,45.932z M34.149,41.74l-15.274,6.139l6.688-24.717L34.149,41.74z M16.666,56.043l18.609,3.28L13.74,70.197   c-0.236-0.215-0.482-0.417-0.74-0.604L16.666,56.043z M39.216,63.82c1.46,1.339,3.399,2.163,5.537,2.163   c2.897,0,5.438-1.506,6.897-3.773l6.529,1.151l-3.723,13.76c-2.623,0.252-4.877,1.74-6.191,3.873l-31.184-5.998L39.216,63.82z    M60.045,78.641l3.85-14.23l19.023,3.658L60.784,79.244C60.549,79.029,60.303,78.828,60.045,78.641z"/>
</g>
</svg>