<svg xmlns="http://www.w3.org/2000/svg" xmlns:xlink="http://www.w3.org/1999/xlink" version="1.1" id="Layer_1" x="0px" y="0px" width="100px" height="100px" viewBox="0 0 100 100" enable-background="new 0 0 100 100" xml:space="preserve">
<polygon fill="#000000" points="90.625,43.5 90.625,50 85.75,50 85.75,82.5 79.25,82.5 79.25,50 20.75,50 20.75,82.5 14.25,82.5   14.25,50 9.375,50 9.375,43.5 "/>
<polygon fill="#000000" points="53.25,24 53.25,28.875 7.75,28.875 7.75,51.625 2.875,51.625 2.875,24 "/>
<path fill="#000000" d="M67.875,19.125v16.25h-4.063V37h-1.625v3.25h-1.625V37h-1.625v-1.625h-4.063v-16.25  c0-0.893,2.909-1.625,6.5-1.625S67.875,18.232,67.875,19.125z"/>
<polygon fill="#000000" points="17.5,42.688 17.5,40.25 32.125,40.25 32.125,41.063 38.625,41.063 38.625,40.25 45.125,40.25   45.125,41.063 51.625,41.063 51.625,40.25 58.125,40.25 58.125,41.063 64.625,41.063 64.625,40.25 82.5,40.25 82.5,42.688 "/>
<polygon fill="#000000" points="97.125,24 97.125,51.625 92.25,51.625 92.25,28.875 69.5,28.875 69.5,24 "/>
</svg>