<svg xmlns="http://www.w3.org/2000/svg" xmlns:xlink="http://www.w3.org/1999/xlink" version="1.1" id="Your_Icon" x="0px" y="0px" width="100px" height="100px" viewBox="0 0 100 100" enable-background="new 0 0 100 100" xml:space="preserve">
<path fill="#000000" d="M99.575,22.368c0-0.005,0-0.011,0-0.016c0-0.008,0-0.016,0-0.025c0-0.035-0.003-0.07-0.005-0.105  c-0.001-0.033-0.002-0.067-0.004-0.1c-0.003-0.04-0.008-0.08-0.012-0.12c-0.004-0.035-0.007-0.071-0.012-0.105  c-0.005-0.038-0.012-0.076-0.019-0.113c-0.007-0.036-0.012-0.073-0.02-0.109c-0.007-0.036-0.016-0.071-0.025-0.106  c-0.009-0.037-0.018-0.075-0.028-0.112c-0.01-0.034-0.02-0.067-0.031-0.101c-0.012-0.038-0.023-0.075-0.036-0.112  c-0.011-0.032-0.024-0.064-0.036-0.096c-0.014-0.037-0.029-0.075-0.045-0.111c-0.013-0.031-0.027-0.061-0.041-0.091  c-0.017-0.037-0.034-0.074-0.052-0.11c-0.015-0.029-0.031-0.058-0.046-0.087c-0.02-0.036-0.039-0.072-0.061-0.107  c-0.016-0.028-0.034-0.056-0.051-0.083c-0.022-0.035-0.044-0.07-0.067-0.104c-0.018-0.027-0.038-0.053-0.057-0.079  c-0.024-0.034-0.049-0.067-0.074-0.1c-0.02-0.026-0.041-0.051-0.062-0.076c-0.026-0.032-0.053-0.064-0.08-0.095  c-0.022-0.024-0.044-0.048-0.067-0.072c-0.028-0.03-0.057-0.06-0.086-0.089c-0.024-0.023-0.048-0.046-0.072-0.068  c-0.03-0.028-0.061-0.056-0.092-0.083c-0.026-0.022-0.052-0.043-0.078-0.064c-0.032-0.026-0.064-0.051-0.097-0.076  c-0.027-0.02-0.055-0.04-0.083-0.059c-0.034-0.024-0.068-0.048-0.103-0.07c-0.029-0.019-0.058-0.036-0.087-0.054  c-0.021-0.013-0.042-0.027-0.064-0.04c-0.015-0.009-0.03-0.016-0.045-0.024c-0.012-0.007-0.024-0.014-0.036-0.021l-10.994-5.966  c-0.008-0.005-0.017-0.01-0.025-0.014L68.593,3.008c-1.051-0.601-2.343-0.597-3.39,0.011l-8.837,5.124  c-0.037,0.019-0.073,0.039-0.109,0.06L38.191,18.534c-0.04,0.021-0.08,0.042-0.119,0.065L20.001,28.934  c-0.038,0.02-0.077,0.041-0.115,0.062L1.825,39.324c-0.051,0.026-0.101,0.052-0.151,0.081c-1.046,0.607-1.692,1.724-1.694,2.934  l-0.029,16.345c-0.002,1.231,0.661,2.366,1.735,2.969l10.914,6.127v9.905c0,1.876,1.521,3.397,3.397,3.397  c1.876,0,3.397-1.521,3.397-3.397v-6.092l11.603,6.513c0.517,0.29,1.09,0.435,1.663,0.435c0.593,0,1.187-0.155,1.716-0.465  c0.065-0.038,0.128-0.078,0.19-0.12l7.135-4.09v20.738c0,1.876,1.521,3.397,3.397,3.397c1.876,0,3.397-1.521,3.397-3.397V69.97  l4.041-2.316c0.233-0.133,0.446-0.292,0.636-0.471l0.251-0.143v20.958c0,1.876,1.521,3.397,3.397,3.397  c1.876,0,3.397-1.521,3.397-3.397V63.153l4.928-2.819v20.839c0,1.876,1.521,3.397,3.397,3.397c1.877,0,3.398-1.521,3.398-3.397  V56.389l4.928-2.86v20.976c0,1.876,1.521,3.398,3.397,3.398c1.876,0,3.397-1.521,3.397-3.398V49.681l4.928-2.819v20.903  c0,1.876,1.521,3.397,3.397,3.397c1.877,0,3.398-1.521,3.398-3.397V42.975l2.482-1.42c1.058-0.605,1.711-1.731,1.711-2.95  L99.575,22.368z M23.147,34.958c0.038-0.02,0.076-0.041,0.114-0.063l18.066-10.331c0.04-0.021,0.08-0.042,0.119-0.065l18.059-10.327  c0.049-0.025,0.097-0.052,0.145-0.08l7.269-4.215l16.396,9.372c0.051,0.031,0.103,0.061,0.156,0.09l5.739,3.114L32.626,54.976  l-4.562-2.526l-4.783-2.654L11.41,43.018l-1.179-0.674L23.147,34.958z M6.765,48.19l1.287,0.735l11.835,6.764  c0.013,0.008,0.027,0.015,0.04,0.022l4.947,2.739l4.39,2.436v8.454L6.75,56.702L6.765,48.19z M48.52,62.125l-1.794,1.028  c-0.699-1.062-1.67-2.145-3.02-3.142c-1.509-1.115-3.637-0.793-4.75,0.716c-1.114,1.509-0.793,3.636,0.716,4.75  c0.48,0.355,0.846,0.72,1.126,1.073l-4.74,2.717v-8.427l56.725-32.602l0.002,6.965c-0.588-0.694-1.308-1.381-2.188-2.031  c-1.509-1.114-3.637-0.793-4.751,0.716c-1.114,1.51-0.794,3.637,0.716,4.751c0.43,0.317,0.769,0.644,1.036,0.963l-5.796,3.315  c-0.692-1.017-1.637-2.051-2.928-3.004c-1.51-1.114-3.636-0.793-4.751,0.716c-1.114,1.51-0.793,3.637,0.717,4.751  c0.402,0.297,0.724,0.601,0.983,0.9l-5.729,3.324c-0.693-1.024-1.642-2.065-2.943-3.024c-1.51-1.114-3.637-0.793-4.751,0.716  c-1.114,1.51-0.793,3.637,0.716,4.751c0.45,0.332,0.799,0.674,1.072,1.005l-5.842,3.342c-0.691-1.013-1.633-2.041-2.919-2.99  c-1.51-1.114-3.637-0.793-4.751,0.717c-1.114,1.51-0.793,3.636,0.717,4.75c0.413,0.305,0.742,0.618,1.004,0.925l-3.237,1.852  C48.927,61.785,48.712,61.945,48.52,62.125z"/>
</svg>