<svg xmlns="http://www.w3.org/2000/svg" xmlns:xlink="http://www.w3.org/1999/xlink" version="1.1" id="Layer_1" x="0px" y="0px" width="100px" height="100px" viewBox="0 0 100 100" enable-background="new 0 0 100 100" xml:space="preserve">
<path fill="#000000" d="M35,5.938c1.407,22.031,11.25,37.499,11.25,37.499h7.5c0,0,10.781-15.234,11.25-37.499H35z"/>
<rect x="48.125" y="47.188" fill="#000000" width="3.75" height="35.625"/>
<path fill="#000000" d="M34.319,71.04L46.25,82.813h-4.98l-9.603-9.12c-0.729-0.729-0.729-1.924,0-2.652  C32.396,70.312,33.589,70.312,34.319,71.04z"/>
<polygon fill="#000000" points="48.125,86.563 48.125,94.062 20,94.062 21.875,92.187 20,90.312 21.875,88.437 20,86.563 "/>
<polygon fill="#000000" points="78.125,86.563 80,88.437 78.125,90.312 80,92.187 78.125,94.062 51.875,94.062 51.875,86.563 "/>
<path fill="#000000" d="M65.553,71.04L53.622,82.813h4.979l9.603-9.12c0.729-0.729,0.729-1.924,0-2.652S66.281,70.312,65.553,71.04z  "/>
</svg>